<svg width="25" height="24" viewBox="0 0 25 24" fill="none" xmlns="http://www.w3.org/2000/svg">
<path d="M6.42388 7.84581C7.48587 7.84581 8.34679 6.9849 8.34679 5.92291C8.34679 4.86091 7.48587 4 6.42388 4C5.36189 4 4.50098 4.86091 4.50098 5.92291C4.50098 6.9849 5.36189 7.84581 6.42388 7.84581Z" fill="#EBEBEB"/>
<path d="M10.1635 9.30271V19.971H13.4758V14.6953C13.4758 13.3032 13.7377 11.9551 15.4638 11.9551C17.1661 11.9551 17.1872 13.5466 17.1872 14.7832V19.9719H20.5013V14.1214C20.5013 11.2476 19.8826 9.03906 16.5236 9.03906C14.911 9.03906 13.83 9.92406 13.3879 10.7616H13.3431V9.30271H10.1635ZM4.76562 9.30271H8.08325V19.971H4.76562V9.30271Z" fill="#EBEBEB"/>
</svg>
