<svg width="25" height="24" viewBox="0 0 25 24" fill="none" xmlns="http://www.w3.org/2000/svg">
<path d="M21.447 8.30496C21.4369 7.54758 21.2951 6.79773 21.028 6.08896C20.7964 5.49111 20.4425 4.94816 19.9892 4.49479C19.5358 4.04142 18.9929 3.68761 18.395 3.45596C17.6953 3.19331 16.9562 3.0513 16.209 3.03596C15.247 2.99296 14.942 2.98096 12.5 2.98096C10.058 2.98096 9.74501 2.98096 8.79001 3.03596C8.04317 3.05141 7.30436 3.19343 6.60501 3.45596C6.00707 3.68745 5.46403 4.0412 5.01064 4.49459C4.55725 4.94798 4.2035 5.49102 3.97201 6.08896C3.70884 6.78809 3.56713 7.52707 3.55301 8.27396C3.51001 9.23696 3.49701 9.54196 3.49701 11.984C3.49701 14.426 3.49701 14.738 3.55301 15.694C3.56801 16.442 3.70901 17.18 3.97201 17.881C4.20389 18.4787 4.55791 19.0215 5.01145 19.4747C5.46499 19.9279 6.00807 20.2815 6.60601 20.513C7.30344 20.7862 8.04238 20.9383 8.79101 20.963C9.75401 21.006 10.059 21.019 12.501 21.019C14.943 21.019 15.256 21.019 16.211 20.963C16.9582 20.9482 17.6974 20.8066 18.397 20.544C18.9947 20.312 19.5375 19.9581 19.9909 19.5048C20.4442 19.0515 20.7981 18.5086 21.03 17.911C21.293 17.211 21.434 16.473 21.449 15.724C21.492 14.762 21.505 14.457 21.505 12.014C21.503 9.57196 21.503 9.26196 21.447 8.30496ZM12.494 16.602C9.94001 16.602 7.87101 14.533 7.87101 11.979C7.87101 9.42496 9.94001 7.35596 12.494 7.35596C13.7201 7.35596 14.896 7.84302 15.763 8.71C16.6299 9.57698 17.117 10.7529 17.117 11.979C17.117 13.2051 16.6299 14.3809 15.763 15.2479C14.896 16.1149 13.7201 16.602 12.494 16.602ZM17.301 8.26296C16.704 8.26296 16.223 7.78096 16.223 7.18496C16.223 7.04346 16.2509 6.90334 16.305 6.77262C16.3592 6.64189 16.4385 6.5231 16.5386 6.42305C16.6387 6.32299 16.7574 6.24363 16.8882 6.18948C17.0189 6.13533 17.159 6.10746 17.3005 6.10746C17.442 6.10746 17.5821 6.13533 17.7129 6.18948C17.8436 6.24363 17.9624 6.32299 18.0624 6.42305C18.1625 6.5231 18.2418 6.64189 18.296 6.77262C18.3501 6.90334 18.378 7.04346 18.378 7.18496C18.378 7.78096 17.896 8.26296 17.301 8.26296Z" fill="#EBEBEB"/>
<path d="M12.494 14.9821C14.1525 14.9821 15.497 13.6376 15.497 11.9791C15.497 10.3206 14.1525 8.97607 12.494 8.97607C10.8355 8.97607 9.49103 10.3206 9.49103 11.9791C9.49103 13.6376 10.8355 14.9821 12.494 14.9821Z" fill="#EBEBEB"/>
</svg>
