<svg width="25" height="24" viewBox="0 0 25 24" fill="none" xmlns="http://www.w3.org/2000/svg">
<path d="M21.4648 6.6672C20.801 6.94638 20.0923 7.13657 19.3461 7.22341C20.1066 6.7849 20.6915 6.09376 20.9683 5.26913C20.2551 5.66745 19.4646 5.9574 18.6231 6.11888C17.9511 5.43061 16.9934 5 15.93 5C13.8923 5 12.2401 6.58107 12.2401 8.52889C12.2401 8.80879 12.2739 9.07792 12.3354 9.33557C9.26801 9.19706 6.54937 7.78751 4.72995 5.65669C4.40971 6.17486 4.23047 6.777 4.23047 7.43297C4.23047 8.66022 4.88294 9.73891 5.8714 10.3726C5.26618 10.354 4.69695 10.1946 4.20047 9.93054V9.97432C4.20047 11.686 5.47017 13.1135 7.15985 13.4386C6.85011 13.5183 6.52312 13.5613 6.18789 13.5613C5.9524 13.5613 5.72666 13.5398 5.50092 13.4996C5.97415 14.9013 7.33459 15.9233 8.95377 15.952C7.69382 16.8986 6.09714 17.4627 4.37746 17.4627C4.08498 17.4627 3.79324 17.4462 3.5 17.4146C5.14168 18.4151 7.07585 19 9.16751 19C15.9577 19 19.6663 13.6202 19.6663 8.96237C19.6663 8.81238 19.6663 8.66094 19.6551 8.51023C20.3758 8.01574 21.005 7.39063 21.5 6.68155L21.4648 6.6672Z" fill="#EBEBEB"/>
</svg>
