<svg width="40" height="40" viewBox="0 0 40 40" fill="none" xmlns="http://www.w3.org/2000/svg">
<path d="M29 0.5V3.5H34.3445L29.282 8.609C27.4725 7.24265 25.2674 6.50237 23 6.5C20.195 6.5 17.576 7.61 15.593 9.5945C14.6128 10.5629 13.8346 11.7162 13.3035 12.9876C12.7724 14.259 12.499 15.6232 12.4992 17.0011C12.4993 18.3789 12.773 19.7431 13.3043 21.0144C13.8357 22.2857 14.6141 23.4388 15.5945 24.407C16.8995 25.712 18.4535 26.6495 20.1875 27.125C20.3585 26.9945 20.5505 26.858 20.7035 26.705C21.3322 26.0655 21.784 25.2737 22.0145 24.407C20.3815 24.2054 18.8631 23.4623 17.702 22.2965C16.286 20.882 15.5 19.004 15.5 17C15.5 14.996 16.2875 13.121 17.705 11.705C19.118 10.2845 20.996 9.5 23 9.5C25.004 9.5 26.8805 10.2875 28.295 11.705C28.9949 12.3976 29.5502 13.2223 29.9287 14.1313C30.3073 15.0402 30.5014 16.0154 30.5 17C30.5 18.2975 30.1325 19.505 29.516 20.609C29.66 21.383 29.75 22.196 29.75 23C29.75 23.747 29.687 24.485 29.5625 25.205C29.8625 24.9605 30.1295 24.683 30.407 24.407C32.39 22.421 33.5 19.805 33.5 17C33.5 14.705 32.744 12.524 31.391 10.718L36.5 5.657V11H39.5V0.5H29ZM19.8125 12.875C19.6415 13.0055 19.4495 13.142 19.2965 13.295C18.6485 13.946 18.2255 14.735 17.9855 15.5945C19.6205 15.8045 21.113 16.5185 22.298 17.7035C23.7155 19.118 24.503 20.996 24.503 22.9985C24.503 25.001 23.7155 26.8775 22.298 28.2935C20.882 29.7155 19.004 30.5 17 30.5C14.996 30.5 13.1195 29.7125 11.705 28.295C11.0046 27.6028 10.4489 26.7782 10.0703 25.8691C9.69177 24.96 9.49789 23.9847 9.5 23C9.5 21.7025 9.8675 20.495 10.484 19.391C10.3334 18.6028 10.2551 17.8025 10.25 17C10.25 16.253 10.313 15.515 10.4375 14.795C10.1375 15.0395 9.872 15.317 9.593 15.5945C7.613 17.576 6.5 20.195 6.5 23C6.5 25.295 7.256 27.476 8.609 29.282L6.08 31.8125L3.08 28.8125L0.919998 30.9215L3.92 33.9215L0.919998 36.9215L3.08 39.0815L6.08 36.0815L9.08 39.0815L11.1875 36.9215L8.1875 33.9215L10.7195 31.3925C12.5272 32.7609 14.7327 33.501 17 33.5C19.805 33.5 22.424 32.39 24.407 30.4055C26.39 28.424 27.5 25.805 27.5 23C27.5 20.195 26.39 17.579 24.4055 15.593C23.1005 14.288 21.5465 13.3505 19.8125 12.875Z" fill="white"/>
</svg>
